<?xml version="1.0" encoding="UTF-8"?>
<svg xmlns="http://www.w3.org/2000/svg" version="1.1" xmlns:inkscape="http://www.inkscape.org/namespaces/inkscape" xmlns:sodipodi="http://sodipodi.sourceforge.net/DTD/sodipodi-0.dtd" xmlns:svg="http://www.w3.org/2000/svg" viewBox="0 0 226.6 58.6">
  <!-- Generator: Adobe Illustrator 28.7.1, SVG Export Plug-In . SVG Version: 1.2.0 Build 142)  -->
  <g>
    <g id="svg256">
      <sodipodi:namedview id="namedview258" bordercolor="#000000" borderopacity="0.25" inkscape:current-layer="g264" inkscape:cx="113.19915" inkscape:cy="29.253713" inkscape:deskcolor="#d1d1d1" inkscape:pagecheckerboard="0" inkscape:pageopacity="0.0" inkscape:showpageshadow="2" inkscape:window-height="1009" inkscape:window-maximized="1" inkscape:window-width="1920" inkscape:window-x="-8" inkscape:window-y="-8" inkscape:zoom="5.5035748" pagecolor="#ffffff" showgrid="false">
        <inkscape:page id="page262" x="0" y="0" width="226.58" height="58.6348"/>
      </sodipodi:namedview>
      <g id="g264" inkscape:groupmode="layer" inkscape:label="Page 1">
        <g id="g266">
          <path id="path268" d="M9.3,38.8l1.9-9.2h201.9l3.1,9.2H9.3Z"/>
        </g>
        <g id="g274">
          <path id="path276" d="M17.7,14.2V.4s-9,0-9,0L.2,38.9h7.5s4.4-20.2,4.4-20.2v8.9h6l5.1-9.7-2.2,9.7h8.4L35.5.4h-9.7s-8.1,13.8-8.1,13.8Z"/>
        </g>
        <g id="g282">
          <path id="path284" d="M60.1.4l-1.5,6.6h6.9s-4.5,20.7-4.5,20.7h8.3s4.5-20.7,4.5-20.7h6.8s1.5-6.6,1.5-6.6h-22Z"/>
        </g>
        <g id="g290">
          <path id="path292" d="M86.7.4l-3.7,6.6h14l-1.1-6.6h-9.2ZM82.3,9l-.6.9-10.1,17.9h9.8l5.7-10.9h2.5l.9,10.9h9.2s-2.5-18.7-2.5-18.7h-14.9Z"/>
        </g>
        <g id="g298">
          <path id="path300" d="M106.7.4l-6.1,27.3h19.1s1.6-7.4,1.6-7.4h-11.1S114.7.3,114.7.3h-8Z"/>
        </g>
        <g id="g306">
          <path id="path308" d="M135.8.4l-10.5,12.3,4.9,15h17.6l4.2-18.8h-13l-1.6,7.3h5.5l-.8,3.6h-5.7l-1.9-6.6,5.9-6.2h12l1.5-6.7h-17.9Z"/>
        </g>
        <g id="g314">
          <path id="path316" d="M156.3.2l-1.5,6.7h19.4l1.5-6.7h-19.5ZM154.4,8.9l-4.2,19.1h19.4s1.8-8.1,1.8-8.1h-11.6l.8-3.6h11.6l1.6-7.3h-19.4Z"/>
        </g>
        <g id="g322">
          <path id="path324" d="M37.7.2l-1.5,6.7h19.4l1.5-6.7h-19.5ZM35.8,8.9l-4.2,19.1h19.4s1.8-8.1,1.8-8.1h-11.6l.8-3.6h11.6l1.6-7.3h-19.4Z"/>
        </g>
        <g id="g330">
          <path id="path332" d="M185.9.4l-3.7,6.6h14l-1.1-6.6h-9.2ZM181.5,9l-.6.9-10.1,17.9h9.8l5.7-10.9h2.5l.9,10.9h9.2s-2.5-18.7-2.5-18.7h-14.9Z"/>
        </g>
        <g id="g338">
          <g id="g340">
            <g id="g346">
              <path id="path348" d="M218,38.9l-8.2-22-2.4,10.8h-8.2l4.1-18.8h14.5c0-.1.4-.3.4-.3l.4-.2v-.4c.1,0,.1-.3.1-.3l-.2-.4-.4-.2h-.5c0-.1-13.8-.2-13.8-.2l1.4-6.5h15c2.3.4,3.7,1.6,4.3,3.6.4,1.4.5,2.7.5,3.8,0,3.1-1.3,5.4-3.9,6.9l-2.9,1.2,8,23h-8.3Z"/>
            </g>
            <g id="g354">
              <path id="path356" d="M20.8,58.4c-1.8,0-3.2-.8-4-2.5-.8-1.5-1-3.5-.6-5.7.4-2.3,1.3-4.2,2.6-5.7,1.4-1.6,3-2.4,4.8-2.4s2.6.5,3.4,1.4c.9,1,1.2,2.3,1.1,4v.2h-2.5v-.2c0-.9-.1-1.6-.6-2.1-.4-.5-1-.7-1.8-.7-1.2,0-2.1.6-3,1.7-.7,1-1.3,2.3-1.5,3.9-.3,1.6-.2,2.9.2,3.9.4,1.1,1.2,1.7,2.3,1.7h0c1.1,0,1.9-.3,2.5-1,.6-.7,1.1-1.6,1.4-2.8h-3.2l.4-2.4h5.6l-1.5,8.4h-1.7v-1.5c-.6.6-1.2,1.1-1.7,1.3-.6.3-1.4.5-2.2.5"/>
            </g>
            <g id="g362">
              <path id="path364" d="M43.1,58.1l1.3-7.2c.2-.9,0-1.6-.2-1.9-.2-.2-.5-.3-.9-.3-.6,0-1.1.3-1.5.8-.5.5-.8,1.2-.9,2l-1.2,6.7h-2.3l2.8-15.6h2.3l-.9,5.2c.3-.3.6-.5.9-.7.6-.3,1.1-.5,1.8-.5,1,0,1.8.4,2.3,1,.5.7.6,1.7.4,2.9l-1.4,7.7h-2.3Z"/>
            </g>
            <g id="g370">
              <path id="path372" d="M62.2,48.7c-.8,0-1.4.4-2,1.2-.5.7-.8,1.5-1,2.6-.2,1-.1,1.9.1,2.6.3.7.8,1.1,1.5,1.1s1.4-.4,2-1.2c.5-.7.9-1.6,1-2.6.2-1,.1-1.9-.1-2.5-.3-.7-.8-1.1-1.5-1.1M60.5,58.4c-1.5,0-2.5-.6-3.2-1.7-.6-1.1-.8-2.5-.4-4.3.3-1.8,1-3.2,2-4.3,1-1.1,2.3-1.7,3.7-1.7s2.5.6,3.2,1.7c.6,1.1.8,2.5.4,4.3-.3,1.8-1,3.2-1.9,4.3-1,1.1-2.3,1.7-3.7,1.7"/>
            </g>
            <g id="g378">
              <path id="path380" d="M79.2,58.4c-1.2,0-2.1-.3-2.7-1-.7-.7-.9-1.8-.7-3.1v-.2h2.4v.2c0,.6,0,1,.3,1.3.2.3.6.4,1.2.4,1.2,0,1.9-.4,2-1.3,0-.2.1-.9-1.1-1.3-2.4-.8-2.5-.9-2.6-.9-.9-.6-1.3-1.6-1.1-2.9.2-1.1.8-2,1.8-2.6.8-.5,1.7-.7,2.7-.7s1.9.3,2.4.8c.7.6.9,1.6.8,2.8v.2h-2.4v-.2c0-.4,0-.7-.3-.9-.2-.2-.6-.3-1.1-.3-1,0-1.5.3-1.6,1,0,.4.1.7.6,1,0,0,.3.1,1.8.6.9.3,1.5.6,1.9,1,.5.6.7,1.4.5,2.5-.2,1.3-.8,2.2-1.9,2.9-.8.6-1.8.8-2.9.8"/>
            </g>
            <g id="g386">
              <path id="path388" d="M96.9,58.2c-1,0-1.7-.3-2-.8-.3-.4-.3-1.2-.1-2.2l1.1-6.3h-1.5l.4-2.2h1.5l.6-3.3h2.3l-.6,3.3h1.8l-.4,2.2h-1.8l-1,5.7c-.1.7,0,1,0,1,0,0,0,.2.5.2s.6,0,.8,0h.3c0,0-.4,2.2-.4,2.2h-1.5Z"/>
            </g>
            <g id="g394">
              <path id="path396" d="M130.2,48.8c.5,0,.9-.2,1.3-.5.4-.3.6-.8.7-1.4.1-.7,0-1.2-.2-1.5-.2-.2-.6-.4-1-.4h-3.3l-.7,3.8h3.2ZM129.3,55.5c1.3,0,2-.7,2.3-2.2.1-.8,0-1.3-.2-1.7-.2-.3-.6-.4-1.2-.4h-3.6l-.8,4.4h3.5ZM122.8,58.1l2.8-15.6h6.1c1.2,0,2.1.3,2.6,1,.6.7.7,1.7.5,3-.3,1.5-1,2.5-2.1,3.2,1.3.6,1.7,1.9,1.4,4-.2,1.3-.8,2.4-1.7,3.1-1,.9-2.2,1.3-3.8,1.3h-5.8Z"/>
            </g>
            <g id="g402">
              <path id="path404" d="M150.2,52.7c-.2.1-.5.2-.9.3l-1.3.2c-1,.2-1.6.8-1.7,1.7,0,.4,0,.7.4.9.3.2.6.3,1,.3s1-.1,1.4-.4c.5-.4.9-.8,1-1.5l.2-1.4ZM151.1,58.4c-.5,0-.8-.1-1.1-.4-.2-.2-.3-.4-.3-.7-.9.7-1.9,1.1-3.1,1.1s-1.6-.3-2.1-.9c-.5-.6-.7-1.5-.5-2.6.2-1.3.8-2.2,1.6-2.8.5-.3,1.4-.6,2.5-.8l1.9-.3c.5-.2.8-.5.9-1.1,0-.4,0-.7-.1-.9-.2-.2-.6-.4-1.2-.4-1.1,0-1.8.5-2.1,1.6h0c0,.1-2.3.1-2.3.1v-.2c.6-2.5,2.3-3.8,4.9-3.8s1.8.3,2.4.8c.7.6,1,1.5.8,2.7l-1,5.7c0,.4,0,.5,0,.6.1,0,.2,0,.3,0s.2,0,.3,0h.3c0,0-.4,2-.4,2h-.1c-.5.2-.9.3-1.4.3"/>
            </g>
            <g id="g410">
              <path id="path412" d="M168.8,48.7c-.7,0-1.3.3-1.9,1-.5.7-.9,1.6-1.1,2.8-.2,1.1-.1,2,.2,2.7.3.7.8,1,1.4,1s1.4-.4,2-1.1c.5-.7.8-1.5,1-2.6.2-1,.1-1.9-.1-2.6-.3-.7-.8-1.1-1.4-1.1M167.6,58.4c-1.3,0-2.2-.4-2.7-1.3l-.2,1h-2.2l2.8-15.6h2.3l-.9,5.2c.3-.3.6-.6,1-.8.6-.3,1.1-.5,1.7-.5,1.4,0,2.4.6,3,1.8.5,1.1.6,2.5.3,4.3-.3,1.6-.8,3-1.7,4.1-.9,1.2-2.1,1.8-3.4,1.8"/>
            </g>
            <g id="g418">
              <path id="path420" d="M189.4,51.2c0-.7,0-1.3-.3-1.8-.3-.5-.7-.8-1.2-.8s-1.1.3-1.6.8c-.5.5-.8,1.1-.9,1.8h4.1ZM186.2,58.4c-1.4,0-2.5-.6-3.1-1.7-.6-1.1-.7-2.6-.4-4.3.3-1.6.9-3.1,1.9-4.2,1-1.2,2.2-1.8,3.6-1.8s2.3.6,2.9,1.8c.6,1.1.7,2.5.5,4.1,0,.3-.1.6-.2.8h0c0,.1-6.5.1-6.5.1-.1.8,0,1.5.2,2,.3.6.7.9,1.4.9,1,0,1.8-.6,2.3-1.7h0c0-.1,2.2-.1,2.2-.1v.3c-.5,1.2-1.2,2.2-2,2.9-.9.7-1.9,1-2.9,1"/>
            </g>
            <g id="g426">
              <path id="path428" d="M200.9,58.1l2.8-15.6h2.3l-2.8,15.6h-2.3Z"/>
            </g>
          </g>
        </g>
      </g>
    </g>
  </g>
</svg>